# Blender v2.93.4 OBJ File: ''
# www.blender.org
mtllib cube.mtl
o Cube
v 1.000000 1.000000 -1.000000
v 1.000000 -1.000000 -1.000000
v 1.000000 1.000000 1.000000
v 1.000000 -1.000000 1.000000
v -1.000000 1.000000 -1.000000
v -1.000000 -1.000000 -1.000000
v -1.000000 1.000000 1.000000
v -1.000000 -1.000000 1.000000
vt 0.000000 0.000000
vt 0.000000 0.000000
vt 0.000000 0.000000
vt 0.000000 0.000000
vt 0.000000 0.000000
vt 0.000000 0.000000
vt 0.000000 0.000000
vt 0.000000 0.000000
vn 0.0000 0.0000 -1.0000
vn -1.0000 0.0000 0.0000
vn 0.0000 0.0000 1.0000
vn 1.0000 0.0000 0.0000
vn 0.0000 1.0000 0.0000
vn 0.0000 -1.0000 0.0000
usemtl Material
s off
f 2/1/1 5/2/1 1/3/1
f 6/4/1 5/2/1 2/1/1
f 6/4/2 8/5/2 5/2/2
f 7/6/2 5/2/2 8/5/2
f 7/6/3 8/5/3 3/7/3
f 4/8/3 3/7/3 8/5/3
f 3/7/4 4/8/4 2/1/4
f 2/1/4 1/3/4 3/7/4
f 7/6/5 3/7/5 1/3/5
f 7/6/5 1/3/5 5/2/5
f 4/8/6 6/4/6 2/1/6
f 6/4/6 4/8/6 8/5/6
